<svg width="19" height="19" viewBox="0 0 19 19" fill="none" xmlns="http://www.w3.org/2000/svg">
<path d="M6.04706 2.19357C3.99941 2.19357 2.33381 3.85917 2.33381 5.90682V13.0932C2.33381 15.1408 3.99941 16.8064 6.04706 16.8064H13.2334C15.2811 16.8064 16.9472 15.1408 16.9472 13.0932V5.90682C16.9472 3.85917 15.2811 2.19357 13.2334 2.19357H6.04706ZM13.2334 18.5H6.04706C3.06538 18.5 0.640747 16.0744 0.640747 13.0932V5.90682C0.640747 2.92513 3.06538 0.5 6.04706 0.5H13.2334C16.2146 0.5 18.6402 2.92513 18.6402 5.90682V13.0932C18.6402 16.0744 16.2146 18.5 13.2334 18.5Z" fill="white"/>
</svg>
